<svg width="27" height="30" viewBox="0 0 27 30" fill="none" xmlns="http://www.w3.org/2000/svg">
<path d="M24.3492 13.3706V13.3706C24.3492 13.2415 24.3229 13.1138 24.272 12.9953L24.4099 12.936L24.272 12.9953C24.2211 12.8768 24.1465 12.7699 24.053 12.6812L24.3492 13.3706ZM24.3492 13.3706V25.6242C24.3492 25.8761 24.2491 26.1177 24.071 26.2958C23.8928 26.474 23.6513 26.574 23.3993 26.574H18.9995C18.7476 26.574 18.506 26.474 18.3279 26.2958C18.1497 26.1177 18.0497 25.8761 18.0497 25.6242V20.1244C18.0497 19.2094 17.6862 18.3319 17.0392 17.6849C16.3922 17.0378 15.5146 16.6744 14.5996 16.6744H12.3997C11.4847 16.6744 10.6072 17.0378 9.96016 17.6849C9.31315 18.3319 8.94967 19.2094 8.94967 20.1244V25.6242C8.94967 25.8761 8.8496 26.1177 8.67147 26.2958C8.49335 26.474 8.25176 26.574 7.99985 26.574H3.6C3.34809 26.574 3.10651 26.474 2.92838 26.2958C2.75026 26.1177 2.65019 25.8761 2.65019 25.6242L2.65019 13.3709C2.65019 13.3708 2.65019 13.3708 2.65019 13.3708C2.65043 13.2421 2.67681 13.1148 2.72773 12.9966C2.77867 12.8784 2.8531 12.7718 2.94651 12.6832C2.94652 12.6832 2.94652 12.6832 2.94653 12.6832L13.4997 2.70522L24.0528 12.681L24.3492 13.3706ZM11.8852 0.792333C12.3215 0.379809 12.8992 0.149957 13.4997 0.149957C14.1001 0.149957 14.6778 0.379809 15.1142 0.792333L25.7705 10.8657C26.4608 11.5169 26.8494 12.4254 26.8494 13.3728V25.6264C26.8494 26.5414 26.4859 27.419 25.8389 28.066C25.1919 28.713 24.3144 29.0765 23.3993 29.0765H18.9995C18.5462 29.0765 18.0974 28.9872 17.6787 28.8136C17.26 28.6401 16.8795 28.3858 16.5591 28.0652C16.2387 27.7446 15.9847 27.364 15.8114 26.9451C15.6382 26.5263 15.5491 26.0774 15.5494 25.6241M11.8852 0.792333L15.6996 25.6242M11.8852 0.792333L1.23104 10.8635M11.8852 0.792333L15.011 0.901442C14.6026 0.515275 14.0618 0.300109 13.4997 0.300109C12.9376 0.300109 12.3968 0.515275 11.9883 0.901442L1.33407 10.9727M11.8852 0.792333L11.9882 0.901346L11.8852 0.792325L11.8852 0.792333ZM15.5494 25.6241L15.6996 25.6242M15.5494 25.6241V25.6242H15.6996M15.5494 25.6241V20.1244C15.5494 19.8725 15.4494 19.6309 15.2713 19.4528C15.0931 19.2747 14.8515 19.1746 14.5996 19.1746H12.3997C12.1478 19.1746 11.9062 19.2747 11.7281 19.4528C11.55 19.6309 11.4499 19.8725 11.4499 20.1244V25.6242C11.4499 26.5392 11.0864 27.4168 10.4394 28.0638C9.79239 28.7108 8.91486 29.0743 7.99985 29.0743H3.6C2.68499 29.0743 1.80746 28.7108 1.16045 28.0638C0.513442 27.4168 0.149957 26.5392 0.149957 25.6242V13.3706C0.149957 12.423 0.540934 11.5145 1.23104 10.8635M15.6996 25.6242V20.1244C15.6996 19.8327 15.5837 19.5529 15.3774 19.3466C15.1711 19.1403 14.8914 19.0244 14.5996 19.0244H12.3997C12.108 19.0244 11.8282 19.1403 11.6219 19.3466C11.4156 19.5529 11.2997 19.8327 11.2997 20.1244V25.6242C11.2997 26.4994 10.9521 27.3388 10.3332 27.9576C9.71438 28.5765 8.87504 28.9241 7.99985 28.9241H3.6C2.72481 28.9241 1.88547 28.5765 1.26662 27.9576C0.647775 27.3388 0.300109 26.4994 0.300109 25.6242V13.3706C0.300109 12.4643 0.674096 11.5953 1.33407 10.9727M1.23104 10.8635L1.23093 10.8636L1.33407 10.9727M1.23104 10.8635L1.33407 10.9727" fill="#666666" stroke="#666666" stroke-width="0.3"/>
</svg>
