<svg width="26" height="29" viewBox="0 0 26 29" fill="none" xmlns="http://www.w3.org/2000/svg">
<path d="M17.5731 17.2188C15.9649 17.2188 15.1916 18.125 12.5522 18.125C9.91291 18.125 9.1452 17.2188 7.53134 17.2188C3.37341 17.2188 0 20.6285 0 24.8312V26.2812C0 27.7822 1.20479 29 2.68977 29H22.4147C23.8997 29 25.1045 27.7822 25.1045 26.2812V24.8312C25.1045 20.6285 21.7311 17.2188 17.5731 17.2188ZM22.4147 26.2812H2.68977V24.8312C2.68977 22.1352 4.86399 19.9375 7.53134 19.9375C8.34948 19.9375 9.67755 20.8438 12.5522 20.8438C15.4493 20.8438 16.7494 19.9375 17.5731 19.9375C20.2405 19.9375 22.4147 22.1352 22.4147 24.8312V26.2812ZM12.5522 16.3125C17.0072 16.3125 20.6215 12.6592 20.6215 8.15625C20.6215 3.65332 17.0072 0 12.5522 0C8.09731 0 4.48294 3.65332 4.48294 8.15625C4.48294 12.6592 8.09731 16.3125 12.5522 16.3125ZM12.5522 2.71875C15.5166 2.71875 17.9318 5.15996 17.9318 8.15625C17.9318 11.1525 15.5166 13.5938 12.5522 13.5938C9.58789 13.5938 7.17271 11.1525 7.17271 8.15625C7.17271 5.15996 9.58789 2.71875 12.5522 2.71875Z" fill="#666666"/>
</svg>
